<mxfile host="Electron" modified="2023-08-24T05:12:26.068Z" agent="Mozilla/5.0 (Macintosh; Intel Mac OS X 10_15_7) AppleWebKit/537.36 (KHTML, like Gecko) draw.io/21.6.8 Chrome/114.0.5735.289 Electron/25.5.0 Safari/537.36" etag="V5q4XSeWjAChptyGLzl8" version="21.6.8" type="device">
  <diagram name="Page-1" id="BKR_YkzgPGulqMtl8ffd">
    <mxGraphModel dx="1114" dy="878" grid="1" gridSize="10" guides="1" tooltips="1" connect="1" arrows="1" fold="1" page="1" pageScale="1" pageWidth="1654" pageHeight="1169" math="0" shadow="0">
      <root>
        <mxCell id="0" />
        <mxCell id="1" parent="0" />
        <mxCell id="nwWhtCFXYri13Cr_h7zf-39" style="edgeStyle=orthogonalEdgeStyle;rounded=0;orthogonalLoop=1;jettySize=auto;html=1;exitX=0.75;exitY=0;exitDx=0;exitDy=0;startArrow=classic;startFill=1;" parent="1" source="nwWhtCFXYri13Cr_h7zf-1" edge="1">
          <mxGeometry relative="1" as="geometry">
            <mxPoint x="775" y="140" as="targetPoint" />
          </mxGeometry>
        </mxCell>
        <mxCell id="nwWhtCFXYri13Cr_h7zf-40" style="edgeStyle=orthogonalEdgeStyle;rounded=0;orthogonalLoop=1;jettySize=auto;html=1;exitX=0.25;exitY=0;exitDx=0;exitDy=0;startArrow=classic;startFill=1;" parent="1" edge="1">
          <mxGeometry relative="1" as="geometry">
            <mxPoint x="639" y="140" as="targetPoint" />
            <mxPoint x="639" y="210" as="sourcePoint" />
          </mxGeometry>
        </mxCell>
        <mxCell id="nwWhtCFXYri13Cr_h7zf-1" value="" style="rounded=1;whiteSpace=wrap;html=1;absoluteArcSize=1;fillColor=#4C5966;fontColor=#ffffff;strokeColor=#314354;" parent="1" vertex="1">
          <mxGeometry x="460" y="210" width="420" height="140" as="geometry" />
        </mxCell>
        <mxCell id="nwWhtCFXYri13Cr_h7zf-2" value="&lt;font color=&quot;#000000&quot;&gt;REST API&lt;/font&gt;" style="rounded=1;whiteSpace=wrap;html=1;absoluteArcSize=1;fillColor=#d5e8d4;strokeColor=#82b366;" parent="1" vertex="1">
          <mxGeometry x="480" y="260" width="210" height="60" as="geometry" />
        </mxCell>
        <mxCell id="nwWhtCFXYri13Cr_h7zf-3" value="&lt;font color=&quot;#000000&quot;&gt;WebSocket&lt;br&gt;Server&lt;/font&gt;" style="rounded=1;whiteSpace=wrap;html=1;absoluteArcSize=1;fillColor=#fff2cc;strokeColor=#d6b656;" parent="1" vertex="1">
          <mxGeometry x="700" y="260" width="160" height="60" as="geometry" />
        </mxCell>
        <mxCell id="nwWhtCFXYri13Cr_h7zf-4" value="&lt;b&gt;Vibin backend&lt;/b&gt;" style="text;html=1;strokeColor=none;fillColor=none;align=center;verticalAlign=middle;whiteSpace=wrap;rounded=0;" parent="1" vertex="1">
          <mxGeometry x="620" y="220" width="100" height="30" as="geometry" />
        </mxCell>
        <mxCell id="nwWhtCFXYri13Cr_h7zf-5" value="" style="rounded=1;whiteSpace=wrap;html=1;absoluteArcSize=1;fillColor=#4C5966;fontColor=#ffffff;strokeColor=#314354;" parent="1" vertex="1">
          <mxGeometry x="460" y="460" width="420" height="680" as="geometry" />
        </mxCell>
        <mxCell id="nwWhtCFXYri13Cr_h7zf-6" value="" style="rounded=1;whiteSpace=wrap;html=1;absoluteArcSize=1;fillColor=#647687;strokeColor=#314354;fontColor=#ffffff;" parent="1" vertex="1">
          <mxGeometry x="480" y="510" width="380" height="300" as="geometry" />
        </mxCell>
        <mxCell id="nwWhtCFXYri13Cr_h7zf-18" style="edgeStyle=orthogonalEdgeStyle;rounded=0;orthogonalLoop=1;jettySize=auto;html=1;exitX=0.5;exitY=1;exitDx=0;exitDy=0;entryX=0.647;entryY=0.003;entryDx=0;entryDy=0;entryPerimeter=0;startArrow=classic;startFill=1;" parent="1" source="nwWhtCFXYri13Cr_h7zf-7" target="nwWhtCFXYri13Cr_h7zf-9" edge="1">
          <mxGeometry relative="1" as="geometry" />
        </mxCell>
        <mxCell id="nwWhtCFXYri13Cr_h7zf-7" value="&lt;font color=&quot;#000000&quot;&gt;Application State&lt;/font&gt;" style="rounded=1;whiteSpace=wrap;html=1;absoluteArcSize=1;fillColor=#ffe6cc;strokeColor=#d79b00;" parent="1" vertex="1">
          <mxGeometry x="610" y="720" width="230" height="60" as="geometry" />
        </mxCell>
        <mxCell id="nwWhtCFXYri13Cr_h7zf-8" value="&lt;b&gt;&lt;font color=&quot;#333333&quot;&gt;RTK Query&lt;/font&gt;&lt;/b&gt;" style="rounded=1;whiteSpace=wrap;html=1;absoluteArcSize=1;fillColor=#829AB0;strokeColor=#36393d;" parent="1" vertex="1">
          <mxGeometry x="500" y="530" width="340" height="90" as="geometry" />
        </mxCell>
        <mxCell id="nwWhtCFXYri13Cr_h7zf-16" style="edgeStyle=orthogonalEdgeStyle;rounded=0;orthogonalLoop=1;jettySize=auto;html=1;exitX=0.25;exitY=0;exitDx=0;exitDy=0;entryX=0.5;entryY=1;entryDx=0;entryDy=0;startArrow=classic;startFill=1;" parent="1" source="nwWhtCFXYri13Cr_h7zf-9" target="nwWhtCFXYri13Cr_h7zf-12" edge="1">
          <mxGeometry relative="1" as="geometry" />
        </mxCell>
        <mxCell id="nwWhtCFXYri13Cr_h7zf-9" value="&lt;font color=&quot;#000000&quot;&gt;React Components&lt;/font&gt;" style="rounded=1;whiteSpace=wrap;html=1;absoluteArcSize=1;fillColor=#ffe6cc;strokeColor=#d79b00;" parent="1" vertex="1">
          <mxGeometry x="480" y="950" width="380" height="170" as="geometry" />
        </mxCell>
        <mxCell id="nwWhtCFXYri13Cr_h7zf-10" value="Vibin UI" style="text;html=1;strokeColor=none;fillColor=none;align=center;verticalAlign=middle;whiteSpace=wrap;rounded=0;fontStyle=1" parent="1" vertex="1">
          <mxGeometry x="640" y="470" width="60" height="30" as="geometry" />
        </mxCell>
        <mxCell id="nwWhtCFXYri13Cr_h7zf-37" style="edgeStyle=orthogonalEdgeStyle;rounded=0;orthogonalLoop=1;jettySize=auto;html=1;exitX=0.5;exitY=1;exitDx=0;exitDy=0;" parent="1" source="nwWhtCFXYri13Cr_h7zf-11" edge="1">
          <mxGeometry relative="1" as="geometry">
            <mxPoint x="770" y="720" as="targetPoint" />
          </mxGeometry>
        </mxCell>
        <mxCell id="nwWhtCFXYri13Cr_h7zf-11" value="&lt;font color=&quot;#000000&quot;&gt;vibinWebsocket&lt;/font&gt;" style="rounded=1;whiteSpace=wrap;html=1;absoluteArcSize=1;fillColor=#fff2cc;strokeColor=#d6b656;" parent="1" vertex="1">
          <mxGeometry x="710" y="555" width="120" height="40" as="geometry" />
        </mxCell>
        <mxCell id="nwWhtCFXYri13Cr_h7zf-12" value="" style="rounded=1;whiteSpace=wrap;html=1;absoluteArcSize=1;fillColor=#d5e8d4;strokeColor=#82b366;dashed=1;" parent="1" vertex="1">
          <mxGeometry x="520" y="560" width="110" height="40" as="geometry" />
        </mxCell>
        <mxCell id="nwWhtCFXYri13Cr_h7zf-19" style="edgeStyle=orthogonalEdgeStyle;rounded=0;orthogonalLoop=1;jettySize=auto;html=1;exitX=0.5;exitY=0;exitDx=0;exitDy=0;entryX=0.405;entryY=1.008;entryDx=0;entryDy=0;entryPerimeter=0;startArrow=classic;startFill=1;" parent="1" source="nwWhtCFXYri13Cr_h7zf-13" target="nwWhtCFXYri13Cr_h7zf-2" edge="1">
          <mxGeometry relative="1" as="geometry" />
        </mxCell>
        <mxCell id="nwWhtCFXYri13Cr_h7zf-13" value="&lt;font color=&quot;#000000&quot;&gt;vibinAlbums/etc&lt;/font&gt;" style="rounded=1;whiteSpace=wrap;html=1;absoluteArcSize=1;fillColor=#d5e8d4;strokeColor=#82b366;" parent="1" vertex="1">
          <mxGeometry x="510" y="550" width="110" height="40" as="geometry" />
        </mxCell>
        <mxCell id="nwWhtCFXYri13Cr_h7zf-14" value="&lt;b&gt;Redux Toolkit&lt;/b&gt;" style="text;html=1;strokeColor=none;fillColor=none;align=center;verticalAlign=middle;whiteSpace=wrap;rounded=0;" parent="1" vertex="1">
          <mxGeometry x="760" y="780" width="90" height="30" as="geometry" />
        </mxCell>
        <mxCell id="nwWhtCFXYri13Cr_h7zf-17" style="edgeStyle=orthogonalEdgeStyle;rounded=0;orthogonalLoop=1;jettySize=auto;html=1;exitX=0.5;exitY=1;exitDx=0;exitDy=0;entryX=0.583;entryY=-0.012;entryDx=0;entryDy=0;entryPerimeter=0;" parent="1" source="nwWhtCFXYri13Cr_h7zf-3" target="nwWhtCFXYri13Cr_h7zf-11" edge="1">
          <mxGeometry relative="1" as="geometry" />
        </mxCell>
        <mxCell id="nwWhtCFXYri13Cr_h7zf-21" value="&lt;font color=&quot;#cccccc&quot;&gt;NAS (media storage)&lt;/font&gt;" style="fontColor=#ffffff;verticalAlign=top;verticalLabelPosition=bottom;labelPosition=center;align=center;html=1;outlineConnect=0;fillColor=#1ba1e2;strokeColor=#006EAF;gradientDirection=north;strokeWidth=2;shape=mxgraph.networks.server;" parent="1" vertex="1">
          <mxGeometry x="740" y="40" width="70" height="80" as="geometry" />
        </mxCell>
        <mxCell id="nwWhtCFXYri13Cr_h7zf-26" style="edgeStyle=orthogonalEdgeStyle;rounded=0;orthogonalLoop=1;jettySize=auto;html=1;startArrow=classic;startFill=1;" parent="1" source="nwWhtCFXYri13Cr_h7zf-22" edge="1">
          <mxGeometry relative="1" as="geometry">
            <mxPoint x="735" y="105" as="targetPoint" />
          </mxGeometry>
        </mxCell>
        <mxCell id="nwWhtCFXYri13Cr_h7zf-22" value="&lt;font color=&quot;#cccccc&quot;&gt;Streamer&lt;/font&gt;" style="fontColor=#ffffff;verticalAlign=top;verticalLabelPosition=bottom;labelPosition=center;align=center;html=1;outlineConnect=0;fillColor=#1ba1e2;strokeColor=#006EAF;gradientDirection=north;strokeWidth=2;shape=mxgraph.networks.modem;" parent="1" vertex="1">
          <mxGeometry x="587" y="90" width="100" height="30" as="geometry" />
        </mxCell>
        <mxCell id="nwWhtCFXYri13Cr_h7zf-30" value="&lt;font color=&quot;#e6e6e6&quot; style=&quot;font-size: 10px;&quot;&gt;Components make streamer requests (&quot;play/pause&quot;); retrieve information (&quot;get track details&quot;), etc.&lt;/font&gt;" style="text;html=1;strokeColor=none;fillColor=none;align=center;verticalAlign=middle;whiteSpace=wrap;rounded=0;fontColor=#CCCCCC;" parent="1" vertex="1">
          <mxGeometry x="578" y="820" width="98" height="120" as="geometry" />
        </mxCell>
        <mxCell id="nwWhtCFXYri13Cr_h7zf-34" value="&lt;font style=&quot;font-size: 10px;&quot;&gt;Messages announcing system updates (new track, playlist modified, etc)&lt;/font&gt;" style="text;html=1;strokeColor=none;fillColor=none;align=center;verticalAlign=middle;whiteSpace=wrap;rounded=0;fontColor=#CCCCCC;" parent="1" vertex="1">
          <mxGeometry x="785" y="370" width="100" height="70" as="geometry" />
        </mxCell>
        <mxCell id="nwWhtCFXYri13Cr_h7zf-35" value="&lt;font color=&quot;#e6e6e6&quot; style=&quot;font-size: 10px;&quot;&gt;Updates to Application State drive component updates&lt;/font&gt;" style="text;html=1;strokeColor=none;fillColor=none;align=center;verticalAlign=middle;whiteSpace=wrap;rounded=0;fontColor=#CCCCCC;" parent="1" vertex="1">
          <mxGeometry x="728" y="833.75" width="70" height="82.5" as="geometry" />
        </mxCell>
        <mxCell id="nwWhtCFXYri13Cr_h7zf-36" value="&lt;font color=&quot;#e6e6e6&quot; style=&quot;font-size: 10px;&quot;&gt;WebSocket messages drive updates to Application State&lt;/font&gt;" style="text;html=1;strokeColor=none;fillColor=none;align=center;verticalAlign=middle;whiteSpace=wrap;rounded=0;fontColor=#CCCCCC;" parent="1" vertex="1">
          <mxGeometry x="687" y="631" width="77" height="73" as="geometry" />
        </mxCell>
        <mxCell id="nwWhtCFXYri13Cr_h7zf-41" value="&lt;font style=&quot;font-size: 10px;&quot;&gt;Perform streamer or amplifier actions; retrieve bulk data; save play&lt;/font&gt;&lt;font color=&quot;#e6e6e6&quot; style=&quot;font-size: 10px;&quot;&gt;lists and favorites;&amp;nbsp;etc.&lt;/font&gt;" style="text;html=1;strokeColor=none;fillColor=none;align=center;verticalAlign=middle;whiteSpace=wrap;rounded=0;fontColor=#CCCCCC;" parent="1" vertex="1">
          <mxGeometry x="570" y="370" width="100" height="70" as="geometry" />
        </mxCell>
        <mxCell id="nwWhtCFXYri13Cr_h7zf-42" value="&lt;b&gt;&lt;font color=&quot;#000000&quot;&gt;vibin&lt;br&gt;&lt;/font&gt;&lt;/b&gt;&lt;font color=&quot;#808080&quot;&gt;what the user sees&lt;/font&gt;" style="text;html=1;strokeColor=none;fillColor=none;align=left;verticalAlign=middle;whiteSpace=wrap;rounded=0;" parent="1" vertex="1">
          <mxGeometry x="490" y="960" width="150" height="30" as="geometry" />
        </mxCell>
        <mxCell id="Z0DbDNgJmcMNjjMyqer8-1" value="&lt;font color=&quot;#cccccc&quot;&gt;Amplifier&lt;/font&gt;" style="fontColor=#ffffff;verticalAlign=top;verticalLabelPosition=bottom;labelPosition=center;align=center;html=1;outlineConnect=0;fillColor=#1ba1e2;strokeColor=#006EAF;gradientDirection=north;strokeWidth=2;shape=mxgraph.networks.modem;" vertex="1" parent="1">
          <mxGeometry x="470" y="90" width="100" height="30" as="geometry" />
        </mxCell>
        <mxCell id="Z0DbDNgJmcMNjjMyqer8-2" style="edgeStyle=orthogonalEdgeStyle;rounded=0;orthogonalLoop=1;jettySize=auto;html=1;exitX=0.25;exitY=0;exitDx=0;exitDy=0;startArrow=classic;startFill=1;" edge="1" parent="1">
          <mxGeometry relative="1" as="geometry">
            <mxPoint x="522" y="141" as="targetPoint" />
            <mxPoint x="522" y="211" as="sourcePoint" />
          </mxGeometry>
        </mxCell>
      </root>
    </mxGraphModel>
  </diagram>
</mxfile>
